<svg width="1822" height="520" viewBox="0 0 1822 520" fill="none" xmlns="http://www.w3.org/2000/svg">
<path d="M542.087 415H499.487V161.2H360.687V415H317.887V127.8H542.087V415ZM641.075 365C647.475 373.4 654.341 379.267 661.675 382.6C669.141 385.933 677.475 387.6 686.675 387.6C704.541 387.6 718.341 381.2 728.075 368.4C737.941 355.467 742.875 336.667 742.875 312C742.875 299.067 741.741 288.067 739.475 279C737.341 269.8 734.141 262.333 729.875 256.6C725.741 250.733 720.608 246.467 714.475 243.8C708.341 241 701.408 239.6 693.675 239.6C682.341 239.6 672.475 242.133 664.075 247.2C655.808 252.267 648.141 259.467 641.075 268.8V365ZM639.075 242.2C643.341 237.133 647.875 232.533 652.675 228.4C657.608 224.133 662.875 220.533 668.475 217.6C674.075 214.533 680.008 212.2 686.275 210.6C692.675 208.867 699.475 208 706.675 208C718.275 208 728.741 210.267 738.075 214.8C747.541 219.333 755.608 226 762.275 234.8C768.941 243.6 774.075 254.467 777.675 267.4C781.408 280.333 783.275 295.2 783.275 312C783.275 327.067 781.208 341.067 777.075 354C773.075 366.8 767.275 377.933 759.675 387.4C752.208 396.867 743.008 404.333 732.075 409.8C721.275 415.133 709.075 417.8 695.475 417.8C683.341 417.8 672.941 415.8 664.275 411.8C655.608 407.8 647.875 402.2 641.075 395V483.2H602.075V211.8H625.475C630.941 211.8 634.341 214.4 635.675 219.6L639.075 242.2ZM913.284 208.6C928.218 208.6 941.684 211.067 953.684 216C965.818 220.8 976.084 227.8 984.484 237C993.018 246.067 999.551 257.067 1004.08 270C1008.62 282.8 1010.88 297.2 1010.88 313.2C1010.88 329.2 1008.62 343.667 1004.08 356.6C999.551 369.533 993.018 380.533 984.484 389.6C976.084 398.667 965.818 405.667 953.684 410.6C941.684 415.4 928.218 417.8 913.284 417.8C898.218 417.8 884.618 415.4 872.484 410.6C860.484 405.667 850.218 398.667 841.684 389.6C833.151 380.533 826.551 369.533 821.884 356.6C817.351 343.667 815.084 329.2 815.084 313.2C815.084 297.2 817.351 282.8 821.884 270C826.551 257.067 833.151 246.067 841.684 237C850.218 227.8 860.484 220.8 872.484 216C884.618 211.067 898.218 208.6 913.284 208.6ZM913.284 387.4C932.484 387.4 946.818 380.933 956.284 368C965.751 355.067 970.484 336.867 970.484 313.4C970.484 289.933 965.751 271.733 956.284 258.8C946.818 245.733 932.484 239.2 913.284 239.2C893.818 239.2 879.284 245.733 869.684 258.8C860.218 271.733 855.484 289.933 855.484 313.4C855.484 336.867 860.218 355.067 869.684 368C879.284 380.933 893.818 387.4 913.284 387.4ZM1283.02 211.2V415H1247.82V285.8C1247.82 281.8 1248.02 277.267 1248.42 272.2C1248.95 267.133 1249.69 262.467 1250.62 258.2L1182.62 378.6C1181.42 380.867 1179.89 382.667 1178.02 384C1176.15 385.2 1173.95 385.8 1171.42 385.8H1167.02C1164.62 385.8 1162.42 385.2 1160.42 384C1158.55 382.667 1157.02 380.867 1155.82 378.6L1086.82 257.8C1087.62 262.067 1088.29 266.8 1088.82 272C1089.35 277.067 1089.62 281.667 1089.62 285.8V415H1054.42V211.2H1086.02C1088.69 211.2 1091.35 211.8 1094.02 213C1096.69 214.2 1098.95 216.533 1100.82 220L1160.22 320.4C1161.95 323.6 1163.55 327 1165.02 330.6C1166.49 334.2 1167.89 337.8 1169.22 341.4C1170.55 337.8 1171.89 334.2 1173.22 330.6C1174.69 327 1176.29 323.6 1178.02 320.4L1236.62 220C1238.49 216.4 1240.75 214.067 1243.42 213C1246.09 211.8 1248.75 211.2 1251.42 211.2H1283.02ZM1424.22 208.6C1439.16 208.6 1452.62 211.067 1464.62 216C1476.76 220.8 1487.02 227.8 1495.42 237C1503.96 246.067 1510.49 257.067 1515.02 270C1519.56 282.8 1521.82 297.2 1521.82 313.2C1521.82 329.2 1519.56 343.667 1515.02 356.6C1510.49 369.533 1503.96 380.533 1495.42 389.6C1487.02 398.667 1476.76 405.667 1464.62 410.6C1452.62 415.4 1439.16 417.8 1424.22 417.8C1409.16 417.8 1395.56 415.4 1383.42 410.6C1371.42 405.667 1361.16 398.667 1352.62 389.6C1344.09 380.533 1337.49 369.533 1332.82 356.6C1328.29 343.667 1326.02 329.2 1326.02 313.2C1326.02 297.2 1328.29 282.8 1332.82 270C1337.49 257.067 1344.09 246.067 1352.62 237C1361.16 227.8 1371.42 220.8 1383.42 216C1395.56 211.067 1409.16 208.6 1424.22 208.6ZM1424.22 387.4C1443.42 387.4 1457.76 380.933 1467.22 368C1476.69 355.067 1481.42 336.867 1481.42 313.4C1481.42 289.933 1476.69 271.733 1467.22 258.8C1457.76 245.733 1443.42 239.2 1424.22 239.2C1404.76 239.2 1390.22 245.733 1380.62 258.8C1371.16 271.733 1366.42 289.933 1366.42 313.4C1366.42 336.867 1371.16 355.067 1380.62 368C1390.22 380.933 1404.76 387.4 1424.22 387.4Z" fill="#FF3333"/>
<rect x="106.066" y="166" width="150" height="150" transform="rotate(45 106.066 166)" fill="#FF3333"/>
<rect x="1715.07" y="166" width="150" height="150" transform="rotate(45 1715.07 166)" fill="#FF3333"/>
</svg>
