<svg width="619" height="310" viewBox="0 0 619 310" fill="none" xmlns="http://www.w3.org/2000/svg">
<path d="M616.099 241.773C611.117 259.408 597.813 273.813 577.976 284.755C558.139 295.697 531.783 303.163 500.74 306.922C438.655 314.439 357.871 307.119 273.108 283.168C188.345 259.217 115.676 223.177 66.7058 184.28C42.2204 164.831 23.6702 144.676 12.4922 124.97C1.31483 105.265 -2.48221 86.0277 2.50064 68.3932C7.48349 50.7587 20.7867 36.3533 40.6235 25.412C60.4615 14.4701 86.8167 7.00336 117.86 3.24464C179.945 -4.27266 260.729 3.04787 345.492 26.9987C430.255 50.9495 502.924 86.9895 551.894 125.887C576.38 145.336 594.93 165.491 606.108 185.197C617.285 204.902 621.082 224.139 616.099 241.773Z" stroke="#FF3333" stroke-width="0.5"></path>
</svg>
