<svg width="26" height="30" viewBox="0 0 26 30" fill="none" xmlns="http://www.w3.org/2000/svg">
<path d="M23.1988 13.8294L9.56414 0.479264C9.24879 0.170242 8.82782 -5.49071e-07 8.37896 -4.70589e-07C7.93009 -3.92107e-07 7.50912 0.170242 7.19377 0.479264L6.18967 1.46218C5.5363 2.10267 5.5363 3.14363 6.18967 3.78314L17.639 14.9938L6.17697 26.2169C5.86162 26.5259 5.6875 26.9378 5.6875 27.3771C5.6875 27.8168 5.86162 28.2288 6.17697 28.5381L7.18107 29.5207C7.49667 29.8298 7.91739 30 8.36626 30C8.81512 30 9.23609 29.8298 9.55144 29.5207L23.1988 16.1584C23.5149 15.8484 23.6885 15.4345 23.6875 14.9945C23.6885 14.5528 23.5149 14.1392 23.1988 13.8294Z" fill="white"></path>
</svg>
