<svg width="689" height="82" viewBox="0 0 689 82" fill="none" xmlns="http://www.w3.org/2000/svg">
<path d="M13.56 16.54C11.94 16.54 10.66 17.82 10.66 19.44C10.66 21.06 11.94 22.34 13.56 22.34C15.18 22.34 16.46 21.06 16.46 19.44C16.46 17.82 15.18 16.54 13.56 16.54ZM13.56 21.24C12.62 21.24 11.86 20.44 11.86 19.44C11.86 18.44 12.62 17.64 13.56 17.64C14.54 17.64 15.26 18.46 15.26 19.44C15.26 20.42 14.54 21.24 13.56 21.24ZM12.82 29.8L13.6 30.26L21.38 16.84L20.6 16.4L12.82 29.8ZM20.64 24.34C19.02 24.34 17.74 25.62 17.74 27.24C17.74 28.86 19.02 30.14 20.64 30.14C22.26 30.14 23.54 28.86 23.54 27.24C23.54 25.62 22.26 24.34 20.64 24.34ZM20.64 29.04C19.7 29.04 18.94 28.24 18.94 27.24C18.94 26.24 19.7 25.44 20.64 25.44C21.62 25.44 22.34 26.26 22.34 27.24C22.34 28.22 21.62 29.04 20.64 29.04ZM34.1072 30.24C36.6272 30.24 38.5072 28.4 38.5072 25.88C38.5072 23.36 36.6472 21.5 34.1072 21.5C31.5672 21.5 29.7072 23.36 29.7072 25.88C29.7072 28.4 31.5872 30.24 34.1072 30.24ZM34.1072 22.78C35.6272 22.78 37.0272 23.84 37.0272 25.88C37.0272 27.9 35.6072 28.96 34.1072 28.96C32.6272 28.96 31.1872 27.92 31.1872 25.88C31.1872 23.86 32.5872 22.78 34.1072 22.78ZM45.9602 23.02V21.7H39.3202V23.02H41.9202V30H43.3602V23.02H45.9602ZM56.0213 30.24C58.5413 30.24 60.4213 28.4 60.4213 25.88C60.4213 23.36 58.5613 21.5 56.0213 21.5C53.4813 21.5 51.6213 23.36 51.6213 25.88C51.6213 28.4 53.5013 30.24 56.0213 30.24ZM56.0213 22.78C57.5413 22.78 58.9413 23.84 58.9413 25.88C58.9413 27.9 57.5213 28.96 56.0213 28.96C54.5413 28.96 53.1013 27.92 53.1013 25.88C53.1013 23.86 54.5013 22.78 56.0213 22.78ZM69.0295 16C68.8495 16.46 68.4895 16.8 67.3695 17.06C66.4095 17.28 65.3695 17.46 64.4695 18.08C62.1695 19.66 62.1095 23.44 62.1095 24.92C62.1095 26.38 62.2495 28.04 63.5095 29.2C64.0495 29.7 64.9695 30.24 66.3695 30.24C69.0895 30.24 70.9095 28.36 70.9095 25.88C70.9095 23.4 69.0695 21.5 66.5895 21.5C65.1095 21.5 64.1095 22.1 63.5695 23.02H63.5295C63.5895 21.5 64.2295 20 65.2695 19.22C66.0695 18.64 67.1295 18.46 67.9095 18.26C68.7895 18.04 70.1495 17.6 70.6295 16H69.0295ZM66.5095 22.78C68.0295 22.78 69.4295 23.84 69.4295 25.88C69.4295 27.9 68.0095 28.96 66.5095 28.96C65.0295 28.96 63.5895 27.92 63.5895 25.88C63.5895 23.86 64.9895 22.78 66.5095 22.78ZM76.9978 30.24C79.5178 30.24 81.3978 28.4 81.3978 25.88C81.3978 23.36 79.5378 21.5 76.9978 21.5C74.4578 21.5 72.5978 23.36 72.5978 25.88C72.5978 28.4 74.4778 30.24 76.9978 30.24ZM76.9978 22.78C78.5178 22.78 79.9178 23.84 79.9178 25.88C79.9178 27.9 78.4978 28.96 76.9978 28.96C75.5178 28.96 74.0778 27.92 74.0778 25.88C74.0778 23.86 75.4778 22.78 76.9978 22.78ZM85.0461 28.84C85.6661 29.64 86.6061 30.24 87.9461 30.24C90.4661 30.24 91.9261 28.18 91.9261 25.9C91.9261 23.66 90.4861 21.5 87.8861 21.5C87.2861 21.5 86.0261 21.64 85.0461 22.86V21.7H83.6061V34.6H85.0461V28.84ZM87.7461 28.96C86.0461 28.96 84.9661 27.58 84.9661 25.88C84.9661 23.88 86.3861 22.78 87.7261 22.78C89.0661 22.78 90.4461 23.86 90.4461 25.9C90.4461 27.56 89.4261 28.96 87.7461 28.96ZM98.0134 30.24C100.533 30.24 102.413 28.4 102.413 25.88C102.413 23.36 100.553 21.5 98.0134 21.5C95.4734 21.5 93.6134 23.36 93.6134 25.88C93.6134 28.4 95.4934 30.24 98.0134 30.24ZM98.0134 22.78C99.5334 22.78 100.933 23.84 100.933 25.88C100.933 27.9 99.5134 28.96 98.0134 28.96C96.5334 28.96 95.0934 27.92 95.0934 25.88C95.0934 23.86 96.4934 22.78 98.0134 22.78ZM109.866 23.02V21.7H103.226V23.02H105.826V30H107.266V23.02H109.866ZM117.486 22.88C117.106 22.38 116.246 21.5 114.646 21.5C112.526 21.5 110.606 22.98 110.606 25.84C110.606 28.76 112.546 30.24 114.646 30.24C116.106 30.24 117.006 29.46 117.486 28.84V30H118.926V21.7H117.486V22.88ZM114.806 22.78C116.086 22.78 117.566 23.72 117.566 25.86C117.566 27.5 116.566 28.96 114.806 28.96C113.086 28.96 112.086 27.62 112.086 25.84C112.086 23.82 113.386 22.78 114.806 22.78Z" fill="black"></path>
<path d="M156.32 66H157.8V52.66H154.86L154.08 54.06H156.32V66ZM174.675 57.7H168.835V62.76C168.835 63.26 168.815 63.78 168.555 64.18C168.395 64.44 168.055 64.72 167.515 64.72C167.415 64.72 167.295 64.7 167.195 64.68V66C167.335 66.02 167.495 66.04 167.635 66.04C168.755 66.04 169.375 65.48 169.635 65.16C170.275 64.38 170.275 63.46 170.275 62.76V59.02H173.235V66H174.675V57.7ZM177.399 57.7V66.58L183.079 60.46V66H184.519V57.06L178.839 63.18V57.7H177.399ZM187.243 66H188.683V62.42H192.603V66H194.043V57.7H192.603V61.1H188.683V57.7H187.243V66ZM196.755 57.7V66.58L202.435 60.46V66H203.875V57.06L198.195 63.18V57.7H196.755ZM205.638 66H207.358L209.718 62.66H210.598V66H212.038V57.7H209.138C208.318 57.7 207.418 57.72 206.698 58.4C206.238 58.82 205.958 59.48 205.958 60.26C205.958 61.04 206.278 61.6 206.618 61.92C207.218 62.5 208.118 62.58 208.218 62.58L205.638 66ZM210.598 61.46H209.238C208.898 61.46 208.378 61.48 207.958 61.22C207.598 61 207.438 60.66 207.438 60.22C207.438 59.68 207.718 59.36 207.958 59.2C208.258 59.02 208.678 58.98 209.258 58.98H210.598V61.46Z" fill="black" fill-opacity="0.5"></path>
<path d="M156.32 30H157.8V16.66H154.86L154.08 18.06H156.32V30ZM166.778 30.24C167.838 30.24 169.178 29.72 170.198 28.24C171.078 26.96 171.538 25.24 171.538 23.34C171.538 21.44 171.078 19.72 170.198 18.44C169.178 16.96 167.838 16.44 166.778 16.44C165.718 16.44 164.378 16.96 163.358 18.44C162.478 19.72 162.018 21.44 162.018 23.34C162.018 25.24 162.478 26.96 163.358 28.24C164.378 29.72 165.718 30.24 166.778 30.24ZM166.778 17.8C167.458 17.8 168.378 18.16 169.078 19.28C169.798 20.42 170.058 21.94 170.058 23.34C170.058 24.74 169.798 26.26 169.078 27.4C168.378 28.52 167.458 28.88 166.778 28.88C166.098 28.88 165.178 28.52 164.478 27.4C163.758 26.26 163.498 24.74 163.498 23.34C163.498 21.94 163.758 20.42 164.478 19.28C165.178 18.16 166.098 17.8 166.778 17.8ZM178.145 30.24C179.205 30.24 180.545 29.72 181.565 28.24C182.445 26.96 182.905 25.24 182.905 23.34C182.905 21.44 182.445 19.72 181.565 18.44C180.545 16.96 179.205 16.44 178.145 16.44C177.085 16.44 175.745 16.96 174.725 18.44C173.845 19.72 173.385 21.44 173.385 23.34C173.385 25.24 173.845 26.96 174.725 28.24C175.745 29.72 177.085 30.24 178.145 30.24ZM178.145 17.8C178.825 17.8 179.745 18.16 180.445 19.28C181.165 20.42 181.425 21.94 181.425 23.34C181.425 24.74 181.165 26.26 180.445 27.4C179.745 28.52 178.825 28.88 178.145 28.88C177.465 28.88 176.545 28.52 175.845 27.4C175.125 26.26 174.865 24.74 174.865 23.34C174.865 21.94 175.125 20.42 175.845 19.28C176.545 18.16 177.465 17.8 178.145 17.8ZM187.392 16.54C185.772 16.54 184.492 17.82 184.492 19.44C184.492 21.06 185.772 22.34 187.392 22.34C189.012 22.34 190.292 21.06 190.292 19.44C190.292 17.82 189.012 16.54 187.392 16.54ZM187.392 21.24C186.452 21.24 185.692 20.44 185.692 19.44C185.692 18.44 186.452 17.64 187.392 17.64C188.372 17.64 189.092 18.46 189.092 19.44C189.092 20.42 188.372 21.24 187.392 21.24ZM186.652 29.8L187.432 30.26L195.212 16.84L194.432 16.4L186.652 29.8ZM194.472 24.34C192.852 24.34 191.572 25.62 191.572 27.24C191.572 28.86 192.852 30.14 194.472 30.14C196.092 30.14 197.372 28.86 197.372 27.24C197.372 25.62 196.092 24.34 194.472 24.34ZM194.472 29.04C193.532 29.04 192.772 28.24 192.772 27.24C192.772 26.24 193.532 25.44 194.472 25.44C195.452 25.44 196.172 26.26 196.172 27.24C196.172 28.22 195.452 29.04 194.472 29.04Z" fill="#FF3333"></path>
<path d="M253.62 66V64.64H247.98L250.76 61.5C251.3 60.88 252.02 60.06 252.58 59.28C253.38 58.14 253.64 57.32 253.64 56.42C253.64 54.12 251.88 52.44 249.52 52.44C247.86 52.44 246.92 53.16 246.36 53.8C245.84 54.4 245.42 55.22 245.36 56.56H246.84C246.86 55.88 247.02 55.38 247.28 54.98C247.78 54.22 248.56 53.8 249.5 53.8C251.08 53.8 252.16 54.9 252.16 56.4C252.16 56.94 252.02 57.58 251.42 58.44C251.1 58.92 250.2 59.98 249.86 60.38L245 66H253.62ZM267.675 57.7H261.835V62.76C261.835 63.26 261.815 63.78 261.555 64.18C261.395 64.44 261.055 64.72 260.515 64.72C260.415 64.72 260.295 64.7 260.195 64.68V66C260.335 66.02 260.495 66.04 260.635 66.04C261.755 66.04 262.375 65.48 262.635 65.16C263.275 64.38 263.275 63.46 263.275 62.76V59.02H266.235V66H267.675V57.7ZM270.399 57.7V66.58L276.079 60.46V66H277.519V57.06L271.839 63.18V57.7H270.399ZM280.243 66H281.683V62.42H285.603V66H287.043V57.7H285.603V61.1H281.683V57.7H280.243V66ZM289.755 57.7V66.58L295.435 60.46V66H296.875V57.06L291.195 63.18V57.7H289.755ZM298.638 66H300.358L302.718 62.66H303.598V66H305.038V57.7H302.138C301.318 57.7 300.418 57.72 299.698 58.4C299.238 58.82 298.958 59.48 298.958 60.26C298.958 61.04 299.278 61.6 299.618 61.92C300.218 62.5 301.118 62.58 301.218 62.58L298.638 66ZM303.598 61.46H302.238C301.898 61.46 301.378 61.48 300.958 61.22C300.598 61 300.438 60.66 300.438 60.22C300.438 59.68 300.718 59.36 300.958 59.2C301.258 59.02 301.678 58.98 302.258 58.98H303.598V61.46Z" fill="black" fill-opacity="0.5"></path>
<path d="M253.58 16.66H248.28L246.34 23.1C247.54 22.26 248.44 22.18 248.92 22.18C250.82 22.18 252.2 23.54 252.2 25.46C252.2 27.34 250.8 28.88 248.92 28.88C248 28.88 247.32 28.54 246.76 28.08C246.36 27.76 246.08 27.44 245.86 27L244.68 27.84C245 28.38 245.42 28.84 245.84 29.2C246.74 29.94 247.74 30.24 248.82 30.24C251.44 30.24 253.68 28.42 253.68 25.44C253.68 22.84 251.96 20.82 249.28 20.82C248.96 20.82 248.7 20.84 248.44 20.9L249.3 18.02H253.58V16.66ZM261.047 30.24C262.107 30.24 263.447 29.72 264.467 28.24C265.347 26.96 265.807 25.24 265.807 23.34C265.807 21.44 265.347 19.72 264.467 18.44C263.447 16.96 262.107 16.44 261.047 16.44C259.987 16.44 258.647 16.96 257.627 18.44C256.747 19.72 256.287 21.44 256.287 23.34C256.287 25.24 256.747 26.96 257.627 28.24C258.647 29.72 259.987 30.24 261.047 30.24ZM261.047 17.8C261.727 17.8 262.647 18.16 263.347 19.28C264.067 20.42 264.327 21.94 264.327 23.34C264.327 24.74 264.067 26.26 263.347 27.4C262.647 28.52 261.727 28.88 261.047 28.88C260.367 28.88 259.447 28.52 258.747 27.4C258.027 26.26 257.767 24.74 257.767 23.34C257.767 21.94 258.027 20.42 258.747 19.28C259.447 18.16 260.367 17.8 261.047 17.8ZM270.294 16.54C268.674 16.54 267.394 17.82 267.394 19.44C267.394 21.06 268.674 22.34 270.294 22.34C271.914 22.34 273.194 21.06 273.194 19.44C273.194 17.82 271.914 16.54 270.294 16.54ZM270.294 21.24C269.354 21.24 268.594 20.44 268.594 19.44C268.594 18.44 269.354 17.64 270.294 17.64C271.274 17.64 271.994 18.46 271.994 19.44C271.994 20.42 271.274 21.24 270.294 21.24ZM269.554 29.8L270.334 30.26L278.114 16.84L277.334 16.4L269.554 29.8ZM277.374 24.34C275.754 24.34 274.474 25.62 274.474 27.24C274.474 28.86 275.754 30.14 277.374 30.14C278.994 30.14 280.274 28.86 280.274 27.24C280.274 25.62 278.994 24.34 277.374 24.34ZM277.374 29.04C276.434 29.04 275.674 28.24 275.674 27.24C275.674 26.24 276.434 25.44 277.374 25.44C278.354 25.44 279.074 26.26 279.074 27.24C279.074 28.22 278.354 29.04 277.374 29.04Z" fill="#FF3333"></path>
<path d="M438.72 51.92L430.4 63.48H437.24V66H438.72V63.48H440.36V62.12H438.72V51.92ZM433.02 62.12L437.24 56.22V62.12H433.02ZM453.675 57.7H447.835V62.76C447.835 63.26 447.815 63.78 447.555 64.18C447.395 64.44 447.055 64.72 446.515 64.72C446.415 64.72 446.295 64.7 446.195 64.68V66C446.335 66.02 446.495 66.04 446.635 66.04C447.755 66.04 448.375 65.48 448.635 65.16C449.275 64.38 449.275 63.46 449.275 62.76V59.02H452.235V66H453.675V57.7ZM456.399 57.7V66.58L462.079 60.46V66H463.519V57.06L457.839 63.18V57.7H456.399ZM466.243 66H467.683V62.42H471.603V66H473.043V57.7H471.603V61.1H467.683V57.7H466.243V66ZM475.755 57.7V66.58L481.435 60.46V66H482.875V57.06L477.195 63.18V57.7H475.755ZM484.638 66H486.358L488.718 62.66H489.598V66H491.038V57.7H488.138C487.318 57.7 486.418 57.72 485.698 58.4C485.238 58.82 484.958 59.48 484.958 60.26C484.958 61.04 485.278 61.6 485.618 61.92C486.218 62.5 487.118 62.58 487.218 62.58L484.638 66ZM489.598 61.46H488.238C487.898 61.46 487.378 61.48 486.958 61.22C486.598 61 486.438 60.66 486.438 60.22C486.438 59.68 486.718 59.36 486.958 59.2C487.258 59.02 487.678 58.98 488.258 58.98H489.598V61.46Z" fill="black" fill-opacity="0.5"></path>
<path d="M435.32 30H436.8V16.66H433.86L433.08 18.06H435.32V30ZM445.778 30.24C446.838 30.24 448.178 29.72 449.198 28.24C450.078 26.96 450.538 25.24 450.538 23.34C450.538 21.44 450.078 19.72 449.198 18.44C448.178 16.96 446.838 16.44 445.778 16.44C444.718 16.44 443.378 16.96 442.358 18.44C441.478 19.72 441.018 21.44 441.018 23.34C441.018 25.24 441.478 26.96 442.358 28.24C443.378 29.72 444.718 30.24 445.778 30.24ZM445.778 17.8C446.458 17.8 447.378 18.16 448.078 19.28C448.798 20.42 449.058 21.94 449.058 23.34C449.058 24.74 448.798 26.26 448.078 27.4C447.378 28.52 446.458 28.88 445.778 28.88C445.098 28.88 444.178 28.52 443.478 27.4C442.758 26.26 442.498 24.74 442.498 23.34C442.498 21.94 442.758 20.42 443.478 19.28C444.178 18.16 445.098 17.8 445.778 17.8ZM455.025 16.54C453.405 16.54 452.125 17.82 452.125 19.44C452.125 21.06 453.405 22.34 455.025 22.34C456.645 22.34 457.925 21.06 457.925 19.44C457.925 17.82 456.645 16.54 455.025 16.54ZM455.025 21.24C454.085 21.24 453.325 20.44 453.325 19.44C453.325 18.44 454.085 17.64 455.025 17.64C456.005 17.64 456.725 18.46 456.725 19.44C456.725 20.42 456.005 21.24 455.025 21.24ZM454.285 29.8L455.065 30.26L462.845 16.84L462.065 16.4L454.285 29.8ZM462.105 24.34C460.485 24.34 459.205 25.62 459.205 27.24C459.205 28.86 460.485 30.14 462.105 30.14C463.725 30.14 465.005 28.86 465.005 27.24C465.005 25.62 463.725 24.34 462.105 24.34ZM462.105 29.04C461.165 29.04 460.405 28.24 460.405 27.24C460.405 26.24 461.165 25.44 462.105 25.44C463.085 25.44 463.805 26.26 463.805 27.24C463.805 28.22 463.085 29.04 462.105 29.04Z" fill="#FF3333"></path>
<path d="M340.2 55.96C340.24 55.4 340.46 54.9 340.72 54.56C341.24 53.9 341.9 53.8 342.44 53.8C344.08 53.8 344.72 54.9 344.72 56.08C344.72 57.28 344.02 57.84 343.6 58.06C343.18 58.28 342.6 58.38 342.08 58.34V59.66C342.6 59.64 343.18 59.74 343.6 59.94C344.62 60.4 344.92 61.42 344.92 62.18C344.92 63.66 343.78 64.88 342.3 64.88C341.46 64.88 340.68 64.52 340.24 63.88C339.98 63.52 339.82 63.02 339.76 62.54H338.28C338.3 63.02 338.38 63.46 338.58 63.94C339.3 65.66 340.92 66.24 342.3 66.24C344.58 66.24 346.4 64.72 346.4 62.22C346.4 59.92 344.94 59.18 344.48 59C345.84 58.32 346.2 57 346.2 56.04C346.2 54.2 344.96 52.44 342.44 52.44C341.64 52.44 340.22 52.62 339.34 54C339 54.54 338.76 55.22 338.72 55.96H340.2ZM360.675 57.7H354.835V62.76C354.835 63.26 354.815 63.78 354.555 64.18C354.395 64.44 354.055 64.72 353.515 64.72C353.415 64.72 353.295 64.7 353.195 64.68V66C353.335 66.02 353.495 66.04 353.635 66.04C354.755 66.04 355.375 65.48 355.635 65.16C356.275 64.38 356.275 63.46 356.275 62.76V59.02H359.235V66H360.675V57.7ZM363.399 57.7V66.58L369.079 60.46V66H370.519V57.06L364.839 63.18V57.7H363.399ZM373.243 66H374.683V62.42H378.603V66H380.043V57.7H378.603V61.1H374.683V57.7H373.243V66ZM382.755 57.7V66.58L388.435 60.46V66H389.875V57.06L384.195 63.18V57.7H382.755ZM391.638 66H393.358L395.718 62.66H396.598V66H398.038V57.7H395.138C394.318 57.7 393.418 57.72 392.698 58.4C392.238 58.82 391.958 59.48 391.958 60.26C391.958 61.04 392.278 61.6 392.618 61.92C393.218 62.5 394.118 62.58 394.218 62.58L391.638 66ZM396.598 61.46H395.238C394.898 61.46 394.378 61.48 393.958 61.22C393.598 61 393.438 60.66 393.438 60.22C393.438 59.68 393.718 59.36 393.958 59.2C394.258 59.02 394.678 58.98 395.258 58.98H396.598V61.46Z" fill="black" fill-opacity="0.5"></path>
<path d="M346.62 30V28.64H340.98L343.76 25.5C344.3 24.88 345.02 24.06 345.58 23.28C346.38 22.14 346.64 21.32 346.64 20.42C346.64 18.12 344.88 16.44 342.52 16.44C340.86 16.44 339.92 17.16 339.36 17.8C338.84 18.4 338.42 19.22 338.36 20.56H339.84C339.86 19.88 340.02 19.38 340.28 18.98C340.78 18.22 341.56 17.8 342.5 17.8C344.08 17.8 345.16 18.9 345.16 20.4C345.16 20.94 345.02 21.58 344.42 22.44C344.1 22.92 343.2 23.98 342.86 24.38L338 30H346.62ZM357.205 16.66H351.905L349.965 23.1C351.165 22.26 352.065 22.18 352.545 22.18C354.445 22.18 355.825 23.54 355.825 25.46C355.825 27.34 354.425 28.88 352.545 28.88C351.625 28.88 350.945 28.54 350.385 28.08C349.985 27.76 349.705 27.44 349.485 27L348.305 27.84C348.625 28.38 349.045 28.84 349.465 29.2C350.365 29.94 351.365 30.24 352.445 30.24C355.065 30.24 357.305 28.42 357.305 25.44C357.305 22.84 355.585 20.82 352.905 20.82C352.585 20.82 352.325 20.84 352.065 20.9L352.925 18.02H357.205V16.66ZM362.552 16.54C360.932 16.54 359.652 17.82 359.652 19.44C359.652 21.06 360.932 22.34 362.552 22.34C364.172 22.34 365.452 21.06 365.452 19.44C365.452 17.82 364.172 16.54 362.552 16.54ZM362.552 21.24C361.612 21.24 360.852 20.44 360.852 19.44C360.852 18.44 361.612 17.64 362.552 17.64C363.532 17.64 364.252 18.46 364.252 19.44C364.252 20.42 363.532 21.24 362.552 21.24ZM361.812 29.8L362.592 30.26L370.372 16.84L369.592 16.4L361.812 29.8ZM369.632 24.34C368.012 24.34 366.732 25.62 366.732 27.24C366.732 28.86 368.012 30.14 369.632 30.14C371.252 30.14 372.532 28.86 372.532 27.24C372.532 25.62 371.252 24.34 369.632 24.34ZM369.632 29.04C368.692 29.04 367.932 28.24 367.932 27.24C367.932 26.24 368.692 25.44 369.632 25.44C370.612 25.44 371.332 26.26 371.332 27.24C371.332 28.22 370.612 29.04 369.632 29.04Z" fill="#FF3333"></path>
<path d="M532.58 52.66H527.28L525.34 59.1C526.54 58.26 527.44 58.18 527.92 58.18C529.82 58.18 531.2 59.54 531.2 61.46C531.2 63.34 529.8 64.88 527.92 64.88C527 64.88 526.32 64.54 525.76 64.08C525.36 63.76 525.08 63.44 524.86 63L523.68 63.84C524 64.38 524.42 64.84 524.84 65.2C525.74 65.94 526.74 66.24 527.82 66.24C530.44 66.24 532.68 64.42 532.68 61.44C532.68 58.84 530.96 56.82 528.28 56.82C527.96 56.82 527.7 56.84 527.44 56.9L528.3 54.02H532.58V52.66ZM546.675 57.7H540.835V62.76C540.835 63.26 540.815 63.78 540.555 64.18C540.395 64.44 540.055 64.72 539.515 64.72C539.415 64.72 539.295 64.7 539.195 64.68V66C539.335 66.02 539.495 66.04 539.635 66.04C540.755 66.04 541.375 65.48 541.635 65.16C542.275 64.38 542.275 63.46 542.275 62.76V59.02H545.235V66H546.675V57.7ZM549.399 57.7V66.58L555.079 60.46V66H556.519V57.06L550.839 63.18V57.7H549.399ZM559.243 66H560.683V62.42H564.603V66H566.043V57.7H564.603V61.1H560.683V57.7H559.243V66ZM568.755 57.7V66.58L574.435 60.46V66H575.875V57.06L570.195 63.18V57.7H568.755ZM577.638 66H579.358L581.718 62.66H582.598V66H584.038V57.7H581.138C580.318 57.7 579.418 57.72 578.698 58.4C578.238 58.82 577.958 59.48 577.958 60.26C577.958 61.04 578.278 61.6 578.618 61.92C579.218 62.5 580.118 62.58 580.218 62.58L577.638 66ZM582.598 61.46H581.238C580.898 61.46 580.378 61.48 579.958 61.22C579.598 61 579.438 60.66 579.438 60.22C579.438 59.68 579.718 59.36 579.958 59.2C580.258 59.02 580.678 58.98 581.258 58.98H582.598V61.46Z" fill="black" fill-opacity="0.5"></path>
<path d="M532.58 16.66H527.28L525.34 23.1C526.54 22.26 527.44 22.18 527.92 22.18C529.82 22.18 531.2 23.54 531.2 25.46C531.2 27.34 529.8 28.88 527.92 28.88C527 28.88 526.32 28.54 525.76 28.08C525.36 27.76 525.08 27.44 524.86 27L523.68 27.84C524 28.38 524.42 28.84 524.84 29.2C525.74 29.94 526.74 30.24 527.82 30.24C530.44 30.24 532.68 28.42 532.68 25.44C532.68 22.84 530.96 20.82 528.28 20.82C527.96 20.82 527.7 20.84 527.44 20.9L528.3 18.02H532.58V16.66ZM537.927 16.54C536.307 16.54 535.027 17.82 535.027 19.44C535.027 21.06 536.307 22.34 537.927 22.34C539.547 22.34 540.827 21.06 540.827 19.44C540.827 17.82 539.547 16.54 537.927 16.54ZM537.927 21.24C536.987 21.24 536.227 20.44 536.227 19.44C536.227 18.44 536.987 17.64 537.927 17.64C538.907 17.64 539.627 18.46 539.627 19.44C539.627 20.42 538.907 21.24 537.927 21.24ZM537.187 29.8L537.967 30.26L545.747 16.84L544.967 16.4L537.187 29.8ZM545.007 24.34C543.387 24.34 542.107 25.62 542.107 27.24C542.107 28.86 543.387 30.14 545.007 30.14C546.627 30.14 547.907 28.86 547.907 27.24C547.907 25.62 546.627 24.34 545.007 24.34ZM545.007 29.04C544.067 29.04 543.307 28.24 543.307 27.24C543.307 26.24 544.067 25.44 545.007 25.44C545.987 25.44 546.707 26.26 546.707 27.24C546.707 28.22 545.987 29.04 545.007 29.04Z" fill="#FF3333"></path>
<path d="M622.72 52.34L618.18 58.64C617.18 60.04 617.08 61.2 617.08 61.7C617.08 63.8 618.56 66.24 621.7 66.24C624.36 66.24 626.28 64.32 626.28 61.66C626.28 59.18 624.52 57.26 621.96 57.26C621.54 57.26 621.16 57.32 620.78 57.44L623.84 53.18L622.72 52.34ZM621.68 64.88C619.82 64.88 618.56 63.48 618.56 61.7C618.56 59.96 619.84 58.62 621.66 58.62C623.48 58.62 624.8 59.92 624.8 61.7C624.8 63.5 623.52 64.88 621.68 64.88ZM639.675 57.7H633.835V62.76C633.835 63.26 633.815 63.78 633.555 64.18C633.395 64.44 633.055 64.72 632.515 64.72C632.415 64.72 632.295 64.7 632.195 64.68V66C632.335 66.02 632.495 66.04 632.635 66.04C633.755 66.04 634.375 65.48 634.635 65.16C635.275 64.38 635.275 63.46 635.275 62.76V59.02H638.235V66H639.675V57.7ZM642.399 57.7V66.58L648.079 60.46V66H649.519V57.06L643.839 63.18V57.7H642.399ZM652.243 66H653.683V62.42H657.603V66H659.043V57.7H657.603V61.1H653.683V57.7H652.243V66ZM661.755 57.7V66.58L667.435 60.46V66H668.875V57.06L663.195 63.18V57.7H661.755ZM670.638 66H672.358L674.718 62.66H675.598V66H677.038V57.7H674.138C673.318 57.7 672.418 57.72 671.698 58.4C671.238 58.82 670.958 59.48 670.958 60.26C670.958 61.04 671.278 61.6 671.618 61.92C672.218 62.5 673.118 62.58 673.218 62.58L670.638 66ZM675.598 61.46H674.238C673.898 61.46 673.378 61.48 672.958 61.22C672.598 61 672.438 60.66 672.438 60.22C672.438 59.68 672.718 59.36 672.958 59.2C673.258 59.02 673.678 58.98 674.258 58.98H675.598V61.46Z" fill="black" fill-opacity="0.5"></path>
<path d="M619.2 19.96C619.24 19.4 619.46 18.9 619.72 18.56C620.24 17.9 620.9 17.8 621.44 17.8C623.08 17.8 623.72 18.9 623.72 20.08C623.72 21.28 623.02 21.84 622.6 22.06C622.18 22.28 621.6 22.38 621.08 22.34V23.66C621.6 23.64 622.18 23.74 622.6 23.94C623.62 24.4 623.92 25.42 623.92 26.18C623.92 27.66 622.78 28.88 621.3 28.88C620.46 28.88 619.68 28.52 619.24 27.88C618.98 27.52 618.82 27.02 618.76 26.54H617.28C617.3 27.02 617.38 27.46 617.58 27.94C618.3 29.66 619.92 30.24 621.3 30.24C623.58 30.24 625.4 28.72 625.4 26.22C625.4 23.92 623.94 23.18 623.48 23C624.84 22.32 625.2 21 625.2 20.04C625.2 18.2 623.96 16.44 621.44 16.44C620.64 16.44 619.22 16.62 618.34 18C618 18.54 617.76 19.22 617.72 19.96H619.2ZM630.927 16.54C629.307 16.54 628.027 17.82 628.027 19.44C628.027 21.06 629.307 22.34 630.927 22.34C632.547 22.34 633.827 21.06 633.827 19.44C633.827 17.82 632.547 16.54 630.927 16.54ZM630.927 21.24C629.987 21.24 629.227 20.44 629.227 19.44C629.227 18.44 629.987 17.64 630.927 17.64C631.907 17.64 632.627 18.46 632.627 19.44C632.627 20.42 631.907 21.24 630.927 21.24ZM630.187 29.8L630.967 30.26L638.747 16.84L637.967 16.4L630.187 29.8ZM638.007 24.34C636.387 24.34 635.107 25.62 635.107 27.24C635.107 28.86 636.387 30.14 638.007 30.14C639.627 30.14 640.907 28.86 640.907 27.24C640.907 25.62 639.627 24.34 638.007 24.34ZM638.007 29.04C637.067 29.04 636.307 28.24 636.307 27.24C636.307 26.24 637.067 25.44 638.007 25.44C638.987 25.44 639.707 26.26 639.707 27.24C639.707 28.22 638.987 29.04 638.007 29.04Z" fill="#FF3333"></path>
<rect x="0.5" y="0.5" width="688" height="81" stroke="#FF3333" stroke-opacity="0.5"></rect>
</svg>
