<svg width="141" height="142" viewBox="0 0 141 142" fill="none" xmlns="http://www.w3.org/2000/svg">
<rect y="70.7891" width="99.7021" height="99.7021" transform="rotate(-45 0 70.7891)" fill="#FF3333"></rect>
<path d="M40.2809 87.8848L52.0809 70.2848L42.1309 54.5348H49.9309L55.7809 64.8848L61.9309 54.5348H69.7309L59.4809 70.2848L70.8809 87.8848H63.0809L55.7809 75.6848L48.0809 87.8848H40.2809ZM72.7633 87.8848L82.5633 76.7348C85.7633 73.0014 87.6633 70.6848 88.2633 69.7848C89.5633 67.8514 90.2133 66.0681 90.2133 64.4348C90.2133 62.9348 89.7299 61.7181 88.7633 60.7848C87.8299 59.8514 86.6633 59.3848 85.2633 59.3848C83.6633 59.3848 82.3966 59.9348 81.4633 61.0348C80.5299 62.1014 80.0299 63.4014 79.9633 64.9348H73.2633C73.3966 61.5681 74.5466 58.8681 76.7133 56.8348C78.8799 54.8014 81.6299 53.7848 84.9633 53.7848C88.6299 53.7848 91.4966 54.8348 93.5633 56.9348C95.6633 59.0348 96.7133 61.5181 96.7133 64.3848C96.7133 65.9848 96.3466 67.5848 95.6133 69.1848C94.8799 70.7848 94.1799 72.0014 93.5133 72.8348C92.8466 73.6348 91.8966 74.7014 90.6633 76.0348L84.9133 82.2848H96.9633V87.8848H72.7633Z" fill="white"></path>
</svg>
