<svg width="28" height="30" viewBox="0 0 28 30" fill="none" xmlns="http://www.w3.org/2000/svg">
<path d="M3.48872 16.1706L17.1234 29.5207C17.4387 29.8298 17.8597 30 18.3085 30C18.7574 30 19.1784 29.8298 19.4937 29.5207L20.4978 28.5378C21.1512 27.8973 21.1512 26.8564 20.4978 26.2169L9.04849 15.0062L20.5105 3.78314C20.8259 3.47412 21 3.06217 21 2.6229C21 2.18315 20.8259 1.7712 20.5105 1.46194L19.5064 0.479263C19.1908 0.170242 18.7701 1.94943e-07 18.3212 2.34184e-07C17.8724 2.73425e-07 17.4514 0.170243 17.1361 0.479264L3.48872 13.8416C3.17263 14.1516 2.99901 14.5655 3 15.0055C2.99901 15.4472 3.17263 15.8608 3.48872 16.1706Z" fill="white"/>
</svg>
