<svg width="85" height="85" viewBox="0 0 85 85" fill="none" xmlns="http://www.w3.org/2000/svg">
<rect y="42.5" width="60.1041" height="60.1041" transform="rotate(-45 0 42.5)" fill="#FF3333"/>
<path d="M27.2389 35.4656H29.2069L33.7189 47.6816L38.2309 35.4656H40.1989L33.7189 52.4336L27.2389 35.4656ZM42.4468 35.4656H44.2228V51.4736H42.4468V35.4656ZM48.3531 35.4656H51.2571C53.0811 35.4656 54.4251 35.8416 55.2891 36.5936C56.2651 37.4256 56.7531 38.5696 56.7531 40.0256C56.7531 41.2736 56.3291 42.3376 55.4811 43.2176C54.6491 44.0816 53.3851 44.5136 51.6891 44.5136H50.1291V51.4736H48.3531V35.4656ZM50.1291 37.1456V42.8336H51.5931C52.6491 42.8336 53.4731 42.5776 54.0651 42.0656C54.6731 41.5536 54.9771 40.8416 54.9771 39.9296C54.9771 38.0736 53.8011 37.1456 51.4491 37.1456H50.1291Z" fill="white"/>
</svg>
