<svg width="70" height="14" viewBox="0 0 70 14" fill="none" xmlns="http://www.w3.org/2000/svg">
<path d="M0 0.533333L4.90943 14L9.81886 0.533333H8.32785L4.90943 10.2286L1.49101 0.533333H0Z" fill="white"/>
<path d="M11.522 0.533333V13.2381H12.8675V0.533333H11.522Z" fill="white"/>
<path d="M15.9967 0.533333V13.2381H17.3422V7.71428H18.5241C21.288 7.71428 22.3608 5.94286 22.3608 4.15238C22.3608 3.35238 22.1426 2.22857 21.2516 1.42857C20.4334 0.685714 19.4151 0.533333 18.1969 0.533333H15.9967ZM17.3422 1.86667H18.3423C19.2151 1.86667 21.0152 2.05714 21.0152 4.07619C21.0152 5.54286 20.0515 6.38095 18.4514 6.38095H17.3422V1.86667Z" fill="white"/>
<path d="M37.8064 1.58095C36.3518 0.419047 34.9517 0.32381 34.2244 0.32381C30.5878 0.32381 27.8785 3.14286 27.8785 6.93333C27.8785 10.6095 30.5514 13.4667 34.1516 13.4667C35.0608 13.4667 36.4609 13.2381 37.8064 12.2286V10.4762C37.5882 10.7048 37.0973 11.181 36.4063 11.5429C35.7699 11.8857 34.9699 12.1333 34.1516 12.1333C31.9333 12.1333 29.2604 10.4 29.2604 6.95238C29.2604 4.01905 31.3333 1.65714 34.1335 1.65714C34.8426 1.65714 35.5881 1.84762 36.2245 2.15238C36.8427 2.45714 37.4246 2.93333 37.8064 3.33333V1.58095Z" fill="white"/>
<path d="M45.9431 13.4667C49.4524 13.4667 52.2526 10.6667 52.2526 6.89524C52.2526 3.10476 49.4342 0.32381 45.9431 0.32381C42.4519 0.32381 39.6336 3.10476 39.6336 6.89524C39.6336 10.6667 42.4338 13.4667 45.9431 13.4667ZM45.9431 1.65714C48.6705 1.65714 50.8707 3.98095 50.8707 6.89524C50.8707 9.80952 48.6705 12.1333 45.9431 12.1333C43.2156 12.1333 41.0155 9.80952 41.0155 6.89524C41.0155 3.98095 43.2156 1.65714 45.9431 1.65714Z" fill="white"/>
<path d="M54.7245 0.533333V13.2381H56.0701V0.533333H54.7245Z" fill="white"/>
<path d="M60.5448 13.2381V3.42857L70 13.8095V0.533333H68.6544V10.381L59.1993 0V13.2381H60.5448Z" fill="white"/>
</svg>
